<?xml version="1.0" encoding="UTF-8" standalone="no"?>
<svg
   xmlns:dc="http://purl.org/dc/elements/1.1/"
   xmlns:cc="http://creativecommons.org/ns#"
   xmlns:rdf="http://www.w3.org/1999/02/22-rdf-syntax-ns#"
   xmlns:svg="http://www.w3.org/2000/svg"
   xmlns="http://www.w3.org/2000/svg"
   xmlns:sodipodi="http://sodipodi.sourceforge.net/DTD/sodipodi-0.dtd"
   xmlns:inkscape="http://www.inkscape.org/namespaces/inkscape"
   width="800mm"
   height="600mm"
   viewBox="0 0 800 600"
   version="1.1"
   id="svg1010"
   inkscape:version="1.0.1 (3bc2e813f5, 2020-09-07)"
   sodipodi:docname="Telescope_boite_miroir.svg">
  <defs
     id="defs1004" />
  <sodipodi:namedview
     id="base"
     pagecolor="#ffffff"
     bordercolor="#666666"
     borderopacity="1.0"
     inkscape:pageopacity="0.0"
     inkscape:pageshadow="2"
     inkscape:zoom="0.12374369"
     inkscape:cx="1112.0367"
     inkscape:cy="1005.6647"
     inkscape:document-units="mm"
     inkscape:current-layer="layer1"
     inkscape:document-rotation="0"
     showgrid="false"
     inkscape:snap-bbox="true"
     inkscape:bbox-paths="true"
     inkscape:bbox-nodes="true"
     inkscape:snap-bbox-edge-midpoints="true"
     inkscape:snap-bbox-midpoints="true"
     showguides="false"
     inkscape:window-width="1366"
     inkscape:window-height="705"
     inkscape:window-x="1912"
     inkscape:window-y="500"
     inkscape:window-maximized="1" />
  <metadata
     id="metadata1007">
    <rdf:RDF>
      <cc:Work
         rdf:about="">
        <dc:format>image/svg+xml</dc:format>
        <dc:type
           rdf:resource="http://purl.org/dc/dcmitype/StillImage" />
        <dc:title></dc:title>
      </cc:Work>
    </rdf:RDF>
  </metadata>
  <g
     inkscape:label="Calque 1"
     inkscape:groupmode="layer"
     id="layer1">
    <path
       id="rect908"
       style="fill:none;fill-opacity:0.223684;stroke:#ff0000;stroke-width:0.1;stroke-linecap:round;stroke-linejoin:round;stroke-miterlimit:4;stroke-dasharray:none;stroke-opacity:1;paint-order:markers stroke fill"
       d="m 320,280 -86.82933,86.82934 v 86.34098 l 86.82986,86.82984 h 86.33994 l 86.82988,-86.82984 m 0,-86.34098 L 406.341,280 m -43.2258,27.50013 c 0.0183,-1.3e-4 0.0365,-1.3e-4 0.0548,0 2.20895,1.3e-4 3.99963,1.79081 3.99976,3.99976 1.6e-4,2.20916 -1.7906,4.00016 -3.99976,4.00029 -2.20935,1.4e-4 -4.00042,-1.79094 -4.00026,-4.00029 -8e-5,-2.18773 1.75744,-3.96966 3.94496,-3.99976 z m -0.0164,40.82026 h 0.0718 c 34.06459,7e-5 61.67937,27.61485 61.67945,61.67944 2.1e-4,34.06479 -27.61466,61.67989 -61.67945,61.67996 -34.06477,-1e-4 -61.67961,-27.61519 -61.6794,-61.67996 5e-5,-34.03655 27.57108,-61.63972 61.6076,-61.67944 z m -85.04855,106.58057 c 1.4356,-0.007 2.76464,0.75662 3.48247,1.99988 1.1047,1.91318 0.44924,4.35966 -1.46399,5.46427 -1.91318,1.10471 -4.35967,0.44925 -5.46428,-1.46399 -1.1047,-1.91318 -0.44924,-4.35966 1.46399,-5.46427 0.60273,-0.348 1.28584,-0.53272 1.98181,-0.53589 z m 170.186,0 c 0.71455,-0.006 1.41779,0.17855 2.0366,0.53589 1.91323,1.10461 2.5687,3.55109 1.464,5.46427 -1.10461,1.91325 -3.55111,2.56871 -5.4643,1.46399 -1.91323,-1.10461 -2.5687,-3.55109 -1.464,-5.46427 0.70802,-1.22637 2.01168,-1.98698 3.4277,-1.99988 z"
       sodipodi:nodetypes="ccccccccscsscsssscccssscsssscssss" />
    <path
       id="rect959"
       style="fill:none;fill-opacity:0.223684;stroke:#ff0000;stroke-width:0.1;stroke-linecap:round;stroke-linejoin:round;stroke-miterlimit:4;stroke-dasharray:none;stroke-opacity:1;paint-order:markers stroke fill"
       d="m 12.916702,260 v 56.88129 L 111.18305,487.0833 h 30.5511 L 240,316.88232 V 260 M 126.45861,475.04167 c -1.65671,-1e-4 -2.99972,-1.34311 -2.99982,-2.99982 -1.9e-4,-1.65692 1.3429,-3.00025 2.99982,-3.00035 1.65692,1e-4 3.00001,1.34343 2.99982,3.00035 -1e-4,1.65671 -1.34311,2.99972 -2.99982,2.99982 z m 0,-54.25303 c -26.09399,1.2e-4 -47.24738,-21.15327 -47.24725,-47.24726 1.68e-4,-26.09378 21.15347,-47.24684 47.24725,-47.24672 26.09358,1.6e-4 47.24656,21.15314 47.24673,47.24672 1.3e-4,26.09379 -21.15294,47.2471 -47.24673,47.24726 z m 85.09919,-93.1478 c -1.0708,-0.001 -2.05985,-0.57279 -2.59519,-1.50017 -0.82833,-1.43486 -0.33669,-3.26953 1.09812,-4.09794 1.43486,-0.82833 3.26954,-0.3367 4.09795,1.09812 0.82833,1.43486 0.33669,3.26954 -1.09813,4.09794 -0.45685,0.26382 -0.9752,0.40249 -1.50275,0.40205 z m -170.206148,0 c -0.524926,-9.1e-4 -1.040423,-0.13955 -1.495,-0.40205 -1.434812,-0.82841 -1.926447,-2.66308 -1.09812,-4.09794 0.828408,-1.43481 2.663081,-1.92645 4.09794,-1.09812 1.434816,0.8284 1.926455,2.66308 1.09813,4.09794 -0.536725,0.92978 -1.529377,1.50188 -2.60295,1.50017 z"
       sodipodi:nodetypes="cccccccscscssssscsccscccccsc" />
    <path
       id="rect891"
       style="fill:none;fill-opacity:0.223684;stroke:#ff0000;stroke-width:0.1;stroke-linecap:round;stroke-linejoin:round;stroke-miterlimit:4;stroke-dasharray:none;stroke-opacity:1;paint-order:markers stroke fill"
       d="M 493.27035,317.10461 V 577.10425 H 753.27001 V 317.10461 Z m 129.99986,11.11303 A 118.8869,118.8869 0 0 1 742.15701,447.10443 118.8869,118.8869 0 0 1 623.27021,565.99122 118.8869,118.8869 0 0 1 504.38338,447.10443 118.8869,118.8869 0 0 1 623.27021,328.21764 Z" />
    <path
       id="rect875"
       style="fill:none;fill-opacity:0.223684;stroke:#ff0000;stroke-width:0.1;stroke-linecap:round;stroke-linejoin:round;stroke-miterlimit:4;stroke-dasharray:none;stroke-opacity:1;paint-order:markers stroke fill"
       d="m 320.15,260.05 h -160 v -260 h 160"
       sodipodi:nodetypes="cccc" />
    <path
       id="rect877"
       style="fill:none;fill-opacity:0.223684;stroke:#ff0000;stroke-width:0.1;stroke-linecap:round;stroke-linejoin:round;stroke-miterlimit:4;stroke-dasharray:none;stroke-opacity:1;paint-order:markers stroke fill"
       d="m 160.05,260.05 h -160 v -260 h 160"
       sodipodi:nodetypes="cccc" />
    <path
       id="rect881"
       style="fill:none;fill-opacity:0.223684;stroke:#ff0000;stroke-width:0.1;stroke-linecap:round;stroke-linejoin:round;stroke-miterlimit:4;stroke-dasharray:none;stroke-opacity:1;paint-order:markers stroke fill"
       d="m 480.15,280.05 h -160 v -280 h 160"
       sodipodi:nodetypes="cccc" />
    <path
       id="rect883"
       style="fill:none;fill-opacity:0.223684;stroke:#ff0000;stroke-width:0.1;stroke-linecap:round;stroke-linejoin:round;stroke-miterlimit:4;stroke-dasharray:none;stroke-opacity:1;paint-order:markers stroke fill"
       d="m 640.15,280.05 h -160 v -280 h 160 z" />
  </g>
</svg>
